<?xml version="1.0" encoding="utf-8"?>
<!-- Generator: Adobe Illustrator 16.0.0, SVG Export Plug-In . SVG Version: 6.00 Build 0)  -->
<!DOCTYPE svg PUBLIC "-//W3C//DTD SVG 1.1//EN" "http://www.w3.org/Graphics/SVG/1.1/DTD/svg11.dtd">
<svg version="1.1" id="Capa_1" xmlns="http://www.w3.org/2000/svg" xmlns:xlink="http://www.w3.org/1999/xlink" x="0px" y="0px"
	 width="422.362px" height="73.701px" viewBox="0 0 422.362 73.701" enable-background="new 0 0 422.362 73.701"
	 xml:space="preserve">
<g>
	<path d="M133.539,34.404h-7.307v26.219h7.307V34.404z M115.808,29.997h27.885v-6.341h-27.885V29.997z M153.239,50.683h11.067
		v-3.547c0-6.34-3.494-11.603-10.369-11.603c-7.634,0-11.876,5.909-11.876,12.679c0,7.037,3.277,12.732,12.091,12.732
		c3.383,0,5.584-0.32,8.65-1.719l-1.935-4.996c-1.668,0.482-3.868,0.971-6.34,0.971c-2.635,0-5.857-1.938-5.857-6.988
		c0-2.631,0.699-7.465,4.94-7.465c3.066,0,4.087,3.059,4.087,5.371h-4.458V50.683z M184.396,42.679l3.12-5.104
		c-2.581-1.507-5.106-2.042-7.903-2.042c-7.361,0-11.443,5.425-12.144,10.579h6.882c0.644-2.789,2.9-4.617,5.642-4.617
		C182.14,41.496,183.859,42.408,184.396,42.679 M179.832,60.945c2.738,0,5.64-0.641,7.953-2.094l-3.066-4.887
		c-1.343,0.643-2.901,0.961-4.351,0.961c-3.172,0-5.373-1.932-5.963-4.402h-6.989C168.17,57.187,173.112,60.945,179.832,60.945
		 M191.736,60.625h6.77V35.857h-6.77V60.625z M207.637,60.625h6.719v-17.52c0-5.104-3.869-7.575-8.596-7.575
		c-0.972,0-1.937,0.163-2.906,0.433v5.748c0.593-0.16,1.132-0.16,1.722-0.16c1.987,0,3.06,0.643,3.06,2.793V60.625z M229.073,60.787
		v-6.18c-2.42-1.018-3.387-3.494-3.387-6.287c0-3.654,1.664-5.533,3.387-6.34v-6.34c-6.449,0.806-10.42,6.07-10.42,12.68
		C218.653,55.574,223.218,60.033,229.073,60.787 M243.69,48.267c0-4.996-2.361-11.713-10.269-12.627v6.34
		c1.722,0.75,3.284,2.686,3.284,6.287c0,3.707-1.344,5.424-3.284,6.289v6.23C239.446,60.033,243.69,54.984,243.69,48.267
		 M272.853,31.183l3.174-5.378c-2.959-1.882-6.609-2.522-10.051-2.522c-12.734,0-18.268,10.002-18.588,16.621h7.412
		c0.323-4.951,4.514-10.229,10.855-10.229C268.129,29.674,270.758,29.839,272.853,31.183 M276.752,58.275l0.022,0.039v-0.055
		C276.767,58.265,276.759,58.269,276.752,58.275 M266.246,60.945c3.59,0,7.713-0.531,10.506-2.67l-2.875-5.178
		c-2.365,1.184-5.056,1.459-7.631,1.459c-4.409,0-10.37-2.645-11.446-10.289c0,0.055-7.47,0.055-7.47,0.055
		C248.517,56.328,257.005,60.945,266.246,60.945 M278.53,53.748c0,5.48,4.082,7.201,8.006,7.201c0.265,0,1.396-0.057,1.504-0.057
		v-5.209c-0.163,0.051-0.326,0.051-0.486,0.051c-1.504,0-2.469-1.021-2.469-2.361c0-2.098,1.773-2.744,2.577-2.957
		c0.163-0.053,0.325-0.053,0.378-0.107v-4.459c-0.107,0.053-0.326,0.109-0.591,0.162C285.303,46.388,278.53,47.835,278.53,53.748
		 M296.854,61.484l4.668-4.246l-2.361-2.309V42.998c0-3.326-2.797-7.464-9.076-7.464c-5.861,0-10.105,2.685-10.533,3.005
		l2.414,4.566c1.079-0.479,3.762-1.877,7.471-1.877c1.402,0,2.955,1.021,2.955,2.254v13.756L296.854,61.484z M305.319,60.625h6.769
		V35.857h-6.769V60.625z M319.5,60.625h6.772V43.482c0-4.457-2.688-7.952-7.362-7.952c-0.861,0-1.664,0.163-2.47,0.327v5.746
		c0.16-0.053,0.322-0.053,0.485-0.053c1.394,0,2.574,0.482,2.574,2.045V60.625z M333.742,60.625h6.717V43.482
		c0-4.457-2.69-7.952-7.363-7.952c-0.858,0-1.663,0.11-2.475,0.27v5.804c0.163-0.053,0.378-0.053,0.594-0.053
		c1.881-0.055,2.527,0.912,2.527,2.205V60.625z M346.351,73.466h6.774V35.534h-6.774V73.466z M370.642,48.105
		c0-7.146-3.812-12.571-10.961-12.571c-0.75,0-1.447,0.104-2.201,0.269v5.801c0.428-0.107,0.86-0.107,1.291-0.107
		c3.758,0,5.154,3.498,5.154,6.717c0,3.008-1.396,6.77-5.049,6.77c-0.486,0-0.969,0-1.396-0.053v5.857
		c0.643,0.105,1.34,0.162,1.989,0.162C367.312,60.949,370.642,54.175,370.642,48.105 M383.854,60.949
		c0.969,0,1.935-0.219,2.848-0.486V54.66c-0.535,0.16-1.125,0.27-1.664,0.27c-1.986,0-3.008-0.699-3.008-2.58V35.908h-6.766v17.465
		C375.265,58.529,379.075,60.949,383.854,60.949 M391.112,60.625h6.771V35.908h-6.771V60.625z M405.442,53.263l-3.651,4.461
		c1.882,1.717,4.563,3.221,8.866,3.221c3.974,0,9.347-2.363,9.347-7.521c0-3.387-2.202-5.428-4.838-6.986l-3.272,5
		c0.855,0.537,1.498,1.289,1.498,2.045c0,0.963-0.853,1.822-2.63,1.822C408.56,55.304,407.056,54.605,405.442,53.263 M416.673,42.73
		l3.066-4.564c-2.528-1.879-4.838-2.632-8.223-2.632c-3.873,0-8.545,2.522-8.545,7.04c0,4.025,2.362,5.639,4.998,6.928l3.275-5.051
		c-1.399-0.695-2.039-1.127-2.039-2.043c0-0.908,0.75-1.287,2.417-1.287C413.453,41.121,414.631,41.443,416.673,42.73"/>
</g>
<path d="M0.284,60.687h22.153V38.531H0.284V60.687z M0.284,22.442h22.153V0.289H0.284V22.442z M33.753,0.284v60.399h60.396V23.666
	H77.48v20.348H50.303V16.957h20.291V0.284H33.753z"/>
</svg>
